<svg width="63" height="63" viewBox="0 0 63 63" fill="none" xmlns="http://www.w3.org/2000/svg">
<path d="M48.9116 7.99902L47.0039 8.55027L31.8682 12.8579L30.0234 13.4131L30.3936 14.7656L16.1792 10.6431L14.2734 10.0898L13.7202 11.9976L8.18213 30.8227C7.51275 33.1537 7.10522 35.9376 7.875 38.6367C8.49713 40.822 10.0603 42.9207 12.4897 44.1748L10.7041 50.6323L5.04394 48.9726L3.9375 52.7881L19.0732 57.1548L20.1797 53.3413L14.5195 51.6797L16.3032 45.2812C17.5365 45.3862 18.7783 45.2385 19.9526 44.8472C21.1269 44.4559 22.209 43.8292 23.1328 43.0054C25.2256 41.1292 26.4009 38.6288 27.0703 36.2978L31.9312 20.0556L35.9297 34.27V34.3291C36.5991 36.6601 37.7764 39.1604 39.8672 41.0366C41.5741 42.5663 43.9582 43.4897 46.6968 43.2515L48.4805 49.7109L42.8203 51.3726L43.9287 55.186L59.0625 50.8193L57.9541 47.0039L52.2939 48.6655L50.4492 42.2041C52.8787 40.952 54.4399 38.8513 55.064 36.668C55.8318 33.9688 55.4873 31.185 54.8179 28.854L49.4648 9.90477L48.9116 7.99902ZM46.2656 12.8559L48.7266 21.6562H36.4219L34.8843 16.1181L46.2656 12.8559ZM16.9805 15.0117L28.3008 18.2109L26.7002 23.625H14.3955L16.9805 15.0117ZM37.5303 25.5937H49.835L51.0654 29.9624C51.595 31.7933 51.7801 33.9688 51.3115 35.6226C50.841 37.2763 49.9492 38.4379 47.5571 39.1289C45.1651 39.8219 43.7889 39.2903 42.5132 38.1445C41.2355 36.9987 40.2137 35.0536 39.6821 33.2226L37.5303 25.5937ZM13.228 27.5625H25.5327L23.3179 35.1914H23.2568C22.7253 37.0223 21.7645 38.9675 20.4868 40.1133C19.2111 41.2591 17.8349 41.7906 15.4429 41.0976C13.0508 40.4046 12.159 39.2451 11.6885 37.5913C11.2199 35.9376 11.405 33.7601 11.9346 31.9311L13.228 27.5625Z" fill="#665166"/>
</svg>
