<svg width="63" height="64" viewBox="0 0 63 64" fill="none" xmlns="http://www.w3.org/2000/svg">
<path d="M23.625 10.2319C20.3864 10.2319 17.7188 12.8996 17.7188 16.1382C17.7188 16.8312 17.8644 17.4848 18.0889 18.1069H7.875V29.9194H9.84375V55.5132H53.1562V29.9194H55.125V18.1069H44.9111C45.1476 17.4771 45.2728 16.8109 45.2812 16.1382C45.2812 12.8996 42.6136 10.2319 39.375 10.2319C35.9297 10.2319 33.5908 12.8464 32.0532 15.0317C31.8465 15.3231 31.6851 15.6066 31.5 15.8921C31.3149 15.6066 31.1535 15.3212 30.9468 15.0298C29.4092 12.8484 27.0703 10.2319 23.625 10.2319ZM23.625 14.1694C24.8555 14.1694 26.4561 15.4924 27.6865 17.2466C27.9858 17.6758 27.9385 17.6994 28.1787 18.1069H23.625C22.5107 18.1069 21.6562 17.2525 21.6562 16.1382C21.6562 15.0239 22.5107 14.1694 23.625 14.1694ZM39.375 14.1694C40.4893 14.1694 41.3438 15.0239 41.3438 16.1382C41.3438 17.2525 40.4893 18.1069 39.375 18.1069H34.8213C35.0615 17.6994 35.0142 17.6758 35.3135 17.2446C36.5459 15.4944 38.1445 14.1694 39.375 14.1694ZM11.8125 22.0444H51.1875V25.9819H33.4688V24.0132H29.5312V25.9819H11.8125V22.0444ZM13.7812 29.9194H49.2188V51.5757H33.4688V31.8882H29.5312V51.5757H13.7812V29.9194Z" fill="white"/>
</svg>
