<svg width="63" height="63" viewBox="0 0 63 63" fill="none" xmlns="http://www.w3.org/2000/svg">
<path d="M50.6343 9.41257C49.8576 9.48529 49.104 9.71574 48.4194 10.0898L39.1289 15.0117L26.5781 11.9345L25.8398 11.7514L25.1016 12.1196L20.8569 14.5805L18.335 16.0571L20.6719 17.8408L26.0249 21.9023L19.3193 25.4717L12.1196 22.2094L11.2593 21.8413L10.397 22.2724L6.95166 24.1172L4.67578 25.3476L6.39844 27.1943L17.0415 38.6367L18.0259 39.8061L19.3804 39.0679L29.5312 33.6538L27.5015 44.8501L26.8242 48.4194L30.2085 47.0039L35.2524 44.8501L35.9907 44.5429L36.2998 43.8047L43.6196 26.0249L53.9556 20.4868C56.8024 18.9571 57.9482 15.3346 56.4165 12.4897C56.0468 11.8105 55.5468 11.2109 54.9452 10.7251C54.3435 10.2393 53.652 9.87694 52.9102 9.65867C52.1737 9.43475 51.4016 9.35127 50.6343 9.41257ZM51.0024 13.3501C51.2485 13.3343 51.5025 13.3422 51.7407 13.4131C52.1134 13.517 52.4462 13.7307 52.6958 14.0263C52.9454 14.322 53.1003 14.6859 53.1402 15.0708C53.1801 15.4556 53.1033 15.8436 52.9197 16.1842C52.7361 16.5248 52.4543 16.8022 52.1108 16.9804L41.0977 22.9477L40.4814 23.2549L40.2353 23.9321L32.9155 41.5288L32.0532 41.8969L34.146 30.2695L34.8843 26.271L31.3149 28.1787L18.8882 34.8843L11.0742 26.393L11.3813 26.208L18.5811 29.4092L19.5024 29.8384L20.3017 29.3462L50.2661 13.5351C50.495 13.4201 50.7464 13.357 51.0024 13.3501ZM26.332 15.935L33.8999 17.7798L29.8384 19.8725L25.4087 16.4883L26.332 15.935ZM5.90625 51.1875V55.125H57.0937V51.1875H5.90625Z" fill="white"/>
</svg>
