<svg width="63" height="63" viewBox="0 0 63 63" fill="none" xmlns="http://www.w3.org/2000/svg">
<path d="M29.5312 5.90625V9.84375H25.5938V13.7812H29.5312V18.8272L22.2095 26.147L21.6562 26.7632V34.2681L8.85938 41.5898L10.8281 45.0352L13.7812 43.3735V57.0938H29.5312V49.2188C29.5312 48.1261 30.4073 47.25 31.5 47.25C32.5927 47.25 33.4688 48.1261 33.4688 49.2188V57.0938H49.2188V43.3735L52.1719 45.0352L54.1406 41.5898L41.3438 34.2681V26.7632L40.7905 26.147L33.4688 18.8252V13.7812H37.4062V9.84375H33.4688V5.90625H29.5312ZM31.5 22.5186L37.4062 28.4248V36.6069L38.3906 37.1602L45.2812 41.0977V53.1562H37.4062V49.2188C37.4062 45.9802 34.7386 43.3125 31.5 43.3125C28.2614 43.3125 25.5938 45.9802 25.5938 49.2188V53.1562H17.7188V41.0977L24.6094 37.1602L25.5938 36.6069V28.4228L31.5 22.5186ZM31.5 29.5312C30.4172 29.5312 29.5312 30.4172 29.5312 31.5V37.4062H33.4688V31.5C33.4688 30.4172 32.5828 29.5312 31.5 29.5312Z" fill="#665166"/>
</svg>
